#!OML:ASF H:\Terrain\Patient Classification 1\Terrain2\Thursday\justin.ASF
:FULLY-SPECIFIED
:DEGREES
3161
root 8.76206 17.9527 33.3234 -176.289 17.6285 -174.511
lowerback 4.03852 -0.853795 6.03575
upperback 1.95739 -0.576799 4.31687
thorax -0.274526 -0.134504 1.08807
lowerneck -13.3135 -2.16574 -7.60451
upperneck 39.2928 3.66046 -0.488918
head 16.3048 1.66098 2.16619
rclavicle -6.76862e-014 7.07673e-014
rhumerus -33.3258 -6.74782 -76.9713
rradius 30.0877
rwrist -11.7706
rhand -18.0424 11.8433
rfingers 7.12502
rthumb 8.22939 -17.9764
lclavicle -6.76862e-014 7.07673e-014
lhumerus -35.341 12.7352 79.7558
lradius 28.3485
lwrist 1.45287
lhand -16.6267 22.9879
lfingers 7.12502
lthumb 9.59553 -307.251
rfemur -6.82663 3.54611 26.4195
rtibia 26.0673
rfoot -18.1065 3.79526
rtoes 13.6395
lfemur -18.1645 -4.92506 -10.1977
ltibia 31.3516
lfoot -14.8392 -28.6003
ltoes -20.0957
3162
root 8.78662 17.9606 33.343 -176.324 17.0515 -174.483
lowerback 4.12982 -0.829273 5.99945
upperback 1.97852 -0.52581 4.41273
thorax -0.301722 -0.104923 1.20588
lowerneck -13.3446 -2.24719 -7.73955
upperneck 39.2694 3.55089 -0.390772
head 16.3017 1.61282 2.21542
rclavicle -6.0033e-014 2.14687e-014
rhumerus -33.178 -6.55607 -76.7193
rradius 30.2783
rwrist -11.7248
rhand -18.3103 11.5138
rfingers 7.12502
rthumb 7.97082 -18.3159
lclavicle -6.0033e-014 2.14687e-014
lhumerus -35.282 13.8703 79.1787
lradius 27.6632
lwrist -1.67346
lhand -13.4085 24.1382
lfingers 7.12502
lthumb 12.6994 -306.268
rfemur -6.63577 3.32429 26.5751
rtibia 25.7201
rfoot -18.0901 3.43927
rtoes 13.168
lfemur -18.3159 -4.42264 -10.2624
ltibia 32.2743
lfoot -16.0905 -26.5742
ltoes -20.6565
3163
root 8.8119 17.9657 33.3633 -176.235 16.3696 -174.177
lowerback 4.10457 -0.957922 6.17009
upperback 1.99594 -0.663154 4.66163
thorax -0.272679 -0.159966 1.37474
lowerneck -13.2988 -2.19195 -7.96251
upperneck 39.1702 3.71118 -0.410438
head 16.2331 1.65061 2.26969
rclavicle -5.20816e-014 2.14687e-014
rhumerus -32.9597 -5.84288 -76.6064
rradius 30.464
rwrist -12.0585
rhand -18.5997 11.6327
rfingers 7.12502
rthumb 7.69158 -18.2074
lclavicle -5.20816e-014 2.14687e-014
lhumerus -35.3735 14.6742 79.1125
lradius 27.2997
lwrist -2.21026
lhand -14.0312 24.9408
lfingers 7.12502
lthumb 12.099 -305.429
rfemur -6.52737 2.87158 27.0061
rtibia 25.3918
rfoot -18.0271 3.3558
rtoes 14.62
lfemur -18.6264 -3.49803 -10.1094
ltibia 33.1556
lfoot -17.6701 -24.3162
ltoes -23.3178
3164
root 8.8343 17.9747 33.3817 -176.31 15.7588 -174.21
lowerback 4.17115 -1.05014 6.05136
upperback 2.01332 -0.772442 4.77243
thorax -0.2916 -0.210736 1.56105
lowerneck -13.2637 -2.19145 -7.93879
upperneck 39.1361 3.81038 -0.62187
head 16.2134 1.67553 2.19041
rclavicle 3.77691e-015 1.35174e-014
rhumerus -32.806 -5.37063 -76.5101
rradius 30.7371
rwrist -12.3929
rhand -18.3877 11.376
rfingers 7.12502
rthumb 7.89617 -18.4565
lclavicle 3.77691e-015 1.35174e-014
lhumerus -35.5349 14.3328 79.7324
lradius 27.2841
lwrist -0.0144168
lhand -17.8575 22.4381
lfingers 7.12502
lthumb 8.40786 -307.749
rfemur -6.34592 2.4427 27.0405
rtibia 25.1258
rfoot -18.0414 3.42022
rtoes 16.1738
lfemur -18.8754 -2.38341 -10.414
ltibia 33.9439
lfoot -18.1483 -22.3396
ltoes -22.9282
3165
root 8.85263 17.9854 33.3992 -176.562 15.1754 -174.454
lowerback 4.50334 -1.10151 5.72387
upperback 1.98158 -0.815954 4.83125
thorax -0.505619 -0.237307 1.81057
lowerneck -13.2671 -2.23615 -7.85896
upperneck 39.2405 3.85872 -0.802489
head 16.278 1.6955 2.11399
rclavicle 2.78299e-015 -2.62396e-014
rhumerus -32.7176 -5.11086 -76.2735
rradius 30.9959
rwrist -12.5659
rhand -18.2525 10.9421
rfingers 7.12502
rthumb 8.02661 -18.8855
lclavicle 2.78299e-015 -2.62396e-014
lhumerus -35.8045 14.9165 79.5796
lradius 26.9462
lwrist -1.29807
lhand -16.8267 20.182
lfingers 7.12502
lthumb 9.40258 -310.048
rfemur -6.07552 1.8164 26.8161
rtibia 24.9036
rfoot -17.9988 3.56885
rtoes 16.3961
lfemur -18.9238 -1.46262 -10.9487
ltibia 34.6435
lfoot -18.0136 -20.8474
ltoes -17.6739
